<svg width="90" height="22" viewBox="0 0 90 22" fill="none" xmlns="http://www.w3.org/2000/svg">
<path d="M8.45408 17.9226C8.58391 16.9626 8.05159 16.2855 6.8571 15.8912L4.4162 15.184C2.35614 14.4812 1.36073 13.3155 1.42998 11.6869C1.49057 10.4612 2.05319 9.45834 3.11784 8.67834C4.19115 7.88977 5.45055 7.50406 6.89605 7.5212C8.31559 7.53834 9.46679 7.94977 10.3497 8.75548C11.2412 9.55262 11.6697 10.594 11.635 11.8798L9.29801 11.8669C9.31532 11.1726 9.0946 10.6069 8.63585 10.1698C8.1771 9.73262 7.56687 9.50548 6.80517 9.48834C5.99153 9.47119 5.29042 9.66834 4.70183 10.0798C4.15652 10.4655 3.84059 10.9712 3.75403 11.5969C3.64151 12.4026 4.13921 12.9898 5.24714 13.3583L6.42864 13.6798C8.0386 14.0912 9.18116 14.6269 9.8563 15.2869C10.5314 15.9469 10.843 16.7655 10.7911 17.7426C10.7392 18.6083 10.4535 19.3626 9.9342 20.0054C9.41486 20.6483 8.7224 21.1412 7.85683 21.484C6.99126 21.8183 6.06943 21.9726 5.09134 21.9469C3.60256 21.9297 2.37345 21.5012 1.40401 20.6612C0.434576 19.8126 -0.0328319 18.724 0.00179083 17.3955L2.35181 17.4083C2.35181 18.1883 2.60283 18.814 3.10486 19.2854C3.60689 19.7569 4.29502 19.9926 5.16924 19.9926C6.02615 20.0097 6.76622 19.834 7.38943 19.4654C8.01264 19.0883 8.36752 18.574 8.45408 17.9226Z" fill="#39AC37"/>
<path d="M15.7249 21.6897H13.3878L16.8414 1.94122H19.1915L15.7249 21.6897Z" fill="#39AC37"/>
<path d="M22.1128 21.6897H19.7757L22.2166 7.77834H24.5537L22.1128 21.6897ZM24.0473 2.69979C24.4455 2.68264 24.7744 2.80264 25.0341 3.05979C25.3024 3.30836 25.4366 3.63836 25.4366 4.04978C25.4279 4.45264 25.2937 4.78264 25.0341 5.03978C24.783 5.29692 24.4541 5.43406 24.0473 5.45121C23.6405 5.46835 23.3073 5.35264 23.0476 5.10407C22.7879 4.85549 22.6624 4.52978 22.6711 4.12693C22.6797 3.72407 22.8095 3.38978 23.0606 3.12407C23.3116 2.85836 23.6405 2.71693 24.0473 2.69979Z" fill="#39AC37"/>
<path d="M27.6827 18.9897C28.1068 18.9812 28.4574 19.1097 28.7344 19.3754C29.0114 19.6412 29.1455 19.984 29.1369 20.404C29.1282 20.824 28.9854 21.1669 28.7084 21.4326C28.4314 21.6897 28.0852 21.8269 27.6697 21.844C27.2542 21.8612 26.9123 21.7454 26.644 21.4969C26.3757 21.2397 26.2415 20.9012 26.2415 20.4812C26.2415 20.0612 26.3757 19.714 26.644 19.4397C26.9123 19.1569 27.2586 19.0069 27.6827 18.9897Z" fill="#39AC37"/>
<path d="M46.7611 18.8685C46.039 19.8775 44.9854 20.6563 43.6005 21.2048C42.2255 21.7436 40.6526 22.0032 38.8819 21.9836C37.4674 21.9542 36.2308 21.6261 35.1724 20.9991C34.1139 20.3722 33.2829 19.4759 32.6795 18.3101C32.0761 17.1346 31.7299 15.8024 31.6408 14.3134C31.5716 13.1477 31.715 11.5706 32.0711 9.58201C32.4372 7.59344 33.0703 5.87427 33.9705 4.42448C34.8706 2.97468 35.9934 1.86775 37.3388 1.10367C38.694 0.339591 40.2421 -0.027755 41.9832 0.00163265C43.9913 0.0408162 45.5889 0.633467 46.7759 1.77959C47.9729 2.91591 48.6555 4.51754 48.8236 6.58447H46.0637C45.9549 5.23264 45.5444 4.19427 44.8321 3.46938C44.1199 2.74448 43.1356 2.36244 41.8793 2.32326C40.0195 2.25469 38.4615 2.91591 37.2052 4.30692C35.9588 5.69794 35.1377 7.73059 34.742 10.4049L34.4601 12.462L34.4156 13.5787C34.4156 15.5085 34.8162 17.0024 35.6175 18.0603C36.4188 19.1085 37.5415 19.6424 38.9858 19.662C41.0731 19.711 42.73 19.2016 43.9567 18.1338L44.847 13.3289H39.98L40.3954 11.0367H47.9927L46.7611 18.8685Z" fill="#39AC37"/>
<path d="M69.4489 0.295509L66.9561 14.7689C66.6197 16.9926 65.6503 18.7657 64.0478 20.0881C62.4452 21.4007 60.5113 22.0375 58.246 21.9983C56.8314 21.9689 55.5998 21.6554 54.5512 21.0579C53.5125 20.4505 52.7459 19.6032 52.2513 18.5159C51.7567 17.4187 51.5934 16.1746 51.7616 14.7836L54.2545 0.295509H56.9995L54.5215 14.7983C54.3534 16.2971 54.6106 17.4775 55.2931 18.3395C55.9757 19.1918 57.0094 19.6375 58.3944 19.6767C59.898 19.7354 61.1642 19.3338 62.193 18.4718C63.2316 17.5999 63.8845 16.3804 64.1516 14.813L66.6445 0.295509H69.4489Z" fill="#39AC37"/>
<path d="M86.2459 21.6897H83.5453L75.8294 5.0857L72.9211 21.6897H70.1166L73.8707 0.295509H76.5713L84.3021 16.973L87.2252 0.295509H90L86.2459 21.6897Z" fill="#39AC37"/>
</svg>
